<svg width="110" height="110" viewBox="0 0 110 110" fill="none" xmlns="http://www.w3.org/2000/svg">
<path d="M110 0C91.7009 0 54.8118 12.5544 38.3229 34.1384H24.6539C14.7768 34.1384 9.11581 41.5106 5.21806 49.307L0 59.7423H12.3189H20.5118C23.164 59.7423 25.7075 60.7958 27.5829 62.6712L37.4558 72.5442L47.3288 82.4171C49.2042 84.2925 50.2577 86.836 50.2577 89.4882V97.6812V110L60.693 104.783C68.4894 100.884 75.8616 95.2232 75.8616 85.3461V71.6771C97.4456 55.1882 110 18.2991 110 0ZM75.8616 25.6038C80.5752 25.6038 84.3962 29.4248 84.3962 34.1384C84.3962 38.8521 80.5752 42.673 75.8616 42.673C71.1479 42.673 67.327 38.8521 67.327 34.1384C67.327 29.4248 71.1479 25.6038 75.8616 25.6038ZM21.8008 78.2257C21.0198 77.4446 19.7535 77.4446 18.9724 78.2257L16.1193 81.0788C9.95562 87.2425 7.58471 102.415 7.58471 102.415C7.58471 102.415 22.0765 100.725 28.9212 93.8807L31.7743 91.0276C32.5554 90.2466 32.5554 88.9802 31.7743 88.1992L21.8008 78.2257Z" fill="black"/>
</svg>
