<svg width="87" height="20" viewBox="0 0 87 20" fill="none" xmlns="http://www.w3.org/2000/svg">
<path d="M4.5216 8.721V3.294H9.4752C10.512 3.294 11.2896 3.51 11.808 3.942C12.3264 4.356 12.5856 5.031 12.5856 5.967C12.5856 6.939 12.3264 7.641 11.808 8.073C11.2896 8.505 10.512 8.721 9.4752 8.721H4.5216ZM0 0V19.278H4.5216V11.745H9.0432C10.176 11.745 10.992 11.979 11.4912 12.447C11.9904 12.915 12.3168 13.653 12.4704 14.661C12.5856 15.435 12.672 16.245 12.7296 17.091C12.7872 17.937 12.9408 18.666 13.1904 19.278H17.712C17.5008 19.008 17.3376 18.684 17.2224 18.306C17.1264 17.91 17.0496 17.496 16.992 17.064C16.9536 16.632 16.9248 16.209 16.9056 15.795C16.8864 15.381 16.8672 15.021 16.848 14.715C16.8096 14.229 16.7328 13.743 16.6176 13.257C16.5216 12.771 16.3584 12.33 16.128 11.934C15.8976 11.52 15.6 11.169 15.2352 10.881C14.8704 10.575 14.4096 10.35 13.8528 10.206V10.152C15.0048 9.72 15.8304 9.09 16.3296 8.262C16.848 7.434 17.1072 6.453 17.1072 5.319C17.1072 4.581 16.9632 3.897 16.6752 3.267C16.4064 2.619 16.0032 2.052 15.4656 1.566C14.9472 1.08 14.3136 0.702 13.5648 0.432C12.8352 0.144 12.0096 0 11.088 0H0ZM23.9812 12.312C23.9812 11.754 24.0388 11.205 24.154 10.665C24.2692 10.125 24.4612 9.648 24.73 9.234C25.018 8.82 25.3924 8.487 25.8532 8.235C26.314 7.965 26.89 7.83 27.5812 7.83C28.2724 7.83 28.8484 7.965 29.3092 8.235C29.7892 8.487 30.1636 8.82 30.4324 9.234C30.7204 9.648 30.922 10.125 31.0372 10.665C31.1524 11.205 31.21 11.754 31.21 12.312C31.21 12.87 31.1524 13.419 31.0372 13.959C30.922 14.481 30.7204 14.958 30.4324 15.39C30.1636 15.804 29.7892 16.137 29.3092 16.389C28.8484 16.641 28.2724 16.767 27.5812 16.767C26.89 16.767 26.314 16.641 25.8532 16.389C25.3924 16.137 25.018 15.804 24.73 15.39C24.4612 14.958 24.2692 14.481 24.154 13.959C24.0388 13.419 23.9812 12.87 23.9812 12.312ZM19.8916 12.312C19.8916 13.428 20.074 14.436 20.4388 15.336C20.8036 16.236 21.322 17.01 21.994 17.658C22.666 18.288 23.4724 18.774 24.4132 19.116C25.354 19.458 26.41 19.629 27.5812 19.629C28.7524 19.629 29.8084 19.458 30.7492 19.116C31.7092 18.774 32.5252 18.288 33.1972 17.658C33.8692 17.01 34.3876 16.236 34.7524 15.336C35.1172 14.436 35.2996 13.428 35.2996 12.312C35.2996 11.196 35.1172 10.188 34.7524 9.288C34.3876 8.37 33.8692 7.596 33.1972 6.966C32.5252 6.318 31.7092 5.823 30.7492 5.481C29.8084 5.121 28.7524 4.941 27.5812 4.941C26.41 4.941 25.354 5.121 24.4132 5.481C23.4724 5.823 22.666 6.318 21.994 6.966C21.322 7.596 20.8036 8.37 20.4388 9.288C20.074 10.188 19.8916 11.196 19.8916 12.312ZM38.333 0V19.278H42.4226V14.472L44.0066 13.041L48.0962 19.278H53.0498L46.8002 10.449L52.4162 5.319H47.5778L42.4226 10.341V0H38.333ZM54.8706 0V19.278H58.9602V14.472L60.544 13.041L64.6336 19.278H69.5872L63.3376 10.449L68.9536 5.319H64.1152L58.9602 10.341V0H54.8706ZM75.2384 3.159V0H71.1488V3.159H75.2384ZM71.1488 5.319V19.278H75.2384V5.319H71.1488ZM83.6424 5.319V1.134H79.5528V5.319H77.076V7.884H79.5528V16.119C79.5528 16.821 79.6776 17.388 79.9272 17.82C80.1768 18.252 80.5128 18.585 80.9352 18.819C81.3768 19.053 81.876 19.206 82.4328 19.278C83.0088 19.368 83.6136 19.413 84.2472 19.413C84.6504 19.413 85.0632 19.404 85.4856 19.386C85.908 19.368 86.292 19.332 86.6376 19.278V16.308C86.4456 16.344 86.244 16.371 86.0328 16.389C85.8216 16.407 85.6008 16.416 85.3704 16.416C84.6792 16.416 84.2184 16.308 83.988 16.092C83.7576 15.876 83.6424 15.444 83.6424 14.796V7.884H86.6376V5.319H83.6424Z" fill="black"/>
</svg>
